<svg width="141" height="141" viewBox="0 0 141 141" fill="none" xmlns="http://www.w3.org/2000/svg">
<g filter="url(#filter0_d_18_19)">
<rect x="72.3352" y="6" width="91" height="91" transform="rotate(46.7992 72.3352 6)" fill="url(#paint0_linear_18_19)"/>
</g>
<g filter="url(#filter1_d_18_19)">
<path d="M64 99.0727H78V101.227H64V99.0727Z" fill="#FFED91"/>
<path d="M69.1579 100.509H72.8421V112H69.1579V100.509Z" fill="#FFED91"/>
<path d="M66.9474 36.0797L70.6623 33L75.0527 36.0797V99.0727H66.9474V36.0797Z" fill="#FFED91"/>
<path d="M64 99.0727H78V101.227H64V99.0727Z" stroke="#FFED91"/>
<path d="M69.1579 100.509H72.8421V112H69.1579V100.509Z" stroke="#FFED91"/>
<path d="M66.9474 36.0797L70.6623 33L75.0527 36.0797V99.0727H66.9474V36.0797Z" stroke="#FFED91"/>
</g>
<defs>
<filter id="filter0_d_18_19" x="-3.05176e-05" y="0" width="140.63" height="140.63" filterUnits="userSpaceOnUse" color-interpolation-filters="sRGB">
<feFlood flood-opacity="0" result="BackgroundImageFix"/>
<feColorMatrix in="SourceAlpha" type="matrix" values="0 0 0 0 0 0 0 0 0 0 0 0 0 0 0 0 0 0 127 0" result="hardAlpha"/>
<feMorphology radius="2" operator="dilate" in="SourceAlpha" result="effect1_dropShadow_18_19"/>
<feOffset/>
<feGaussianBlur stdDeviation="2"/>
<feComposite in2="hardAlpha" operator="out"/>
<feColorMatrix type="matrix" values="0 0 0 0 0.164706 0 0 0 0 0.223529 0 0 0 0 0.729412 0 0 0 1 0"/>
<feBlend mode="normal" in2="BackgroundImageFix" result="effect1_dropShadow_18_19"/>
<feBlend mode="normal" in="SourceGraphic" in2="effect1_dropShadow_18_19" result="shape"/>
</filter>
<filter id="filter1_d_18_19" x="59.5" y="28.3715" width="23" height="88.1285" filterUnits="userSpaceOnUse" color-interpolation-filters="sRGB">
<feFlood flood-opacity="0" result="BackgroundImageFix"/>
<feColorMatrix in="SourceAlpha" type="matrix" values="0 0 0 0 0 0 0 0 0 0 0 0 0 0 0 0 0 0 127 0" result="hardAlpha"/>
<feOffset/>
<feGaussianBlur stdDeviation="2"/>
<feComposite in2="hardAlpha" operator="out"/>
<feColorMatrix type="matrix" values="0 0 0 0 1 0 0 0 0 0.929412 0 0 0 0 0.568627 0 0 0 1 0"/>
<feBlend mode="normal" in2="BackgroundImageFix" result="effect1_dropShadow_18_19"/>
<feBlend mode="normal" in="SourceGraphic" in2="effect1_dropShadow_18_19" result="shape"/>
</filter>
<linearGradient id="paint0_linear_18_19" x1="164.772" y1="96.0102" x2="70.7366" y2="7.70228" gradientUnits="userSpaceOnUse">
<stop stop-color="#0B2071"/>
<stop offset="1" stop-color="#2B39BA"/>
</linearGradient>
</defs>
</svg>
